<?xml version="1.0" encoding="UTF-8" standalone="no"?>
<!DOCTYPE svg PUBLIC "-//W3C//DTD SVG 1.1//EN"
 "http://www.w3.org/Graphics/SVG/1.1/DTD/svg11.dtd">
<!-- Generated by graphviz version 2.43.0 (0)
 -->
<!-- Title: sr_ff Pages: 1 -->
<svg width="1269pt" height="192pt"
 viewBox="0.00 0.00 1268.86 191.50" xmlns="http://www.w3.org/2000/svg" xmlns:xlink="http://www.w3.org/1999/xlink">
<g id="graph0" class="graph" transform="scale(1 1) rotate(0) translate(4 187.5)">
<title>sr_ff</title>
<polygon fill="white" stroke="transparent" points="-4,4 -4,-187.5 1264.86,-187.5 1264.86,4 -4,4"/>
<text text-anchor="middle" x="630.43" y="-7.8" font-family="Times,serif" font-size="14.00">sr_ff</text>
<!-- n5 -->
<g id="node1" class="node">
<title>n5</title>
<polygon fill="none" stroke="black" points="56.42,-89.54 56.42,-104.46 39.85,-115 16.43,-115 -0.14,-104.46 -0.14,-89.54 16.43,-79 39.85,-79 56.42,-89.54"/>
<text text-anchor="middle" x="28.14" y="-93.3" font-family="Times,serif" font-size="14.00">Clk</text>
</g>
<!-- c15 -->
<g id="node8" class="node">
<title>c15</title>
<polygon fill="none" stroke="black" points="92.28,-117 92.28,-163 197.28,-163 197.28,-117 92.28,-117"/>
<text text-anchor="middle" x="105.78" y="-147.8" font-family="Times,serif" font-size="14.00">A</text>
<polyline fill="none" stroke="black" points="92.28,-140 119.28,-140 "/>
<text text-anchor="middle" x="105.78" y="-124.8" font-family="Times,serif" font-size="14.00">B</text>
<polyline fill="none" stroke="black" points="119.28,-117 119.28,-163 "/>
<text text-anchor="middle" x="145.28" y="-143.8" font-family="Times,serif" font-size="14.00">$1</text>
<text text-anchor="middle" x="145.28" y="-128.8" font-family="Times,serif" font-size="14.00">$and</text>
<polyline fill="none" stroke="black" points="171.28,-117 171.28,-163 "/>
<text text-anchor="middle" x="184.28" y="-136.3" font-family="Times,serif" font-size="14.00">Y</text>
</g>
<!-- n5&#45;&gt;c15 -->
<g id="edge7" class="edge">
<title>n5:e&#45;&gt;c15:w</title>
<path fill="none" stroke="#7570b3" d="M56.28,-97C73.27,-97 72.55,-117.07 82.63,-124.91"/>
<polygon fill="#7570b3" stroke="#7570b3" points="81.69,-128.29 92.28,-128 83.82,-121.62 81.69,-128.29"/>
</g>
<!-- c16 -->
<g id="node9" class="node">
<title>c16</title>
<polygon fill="none" stroke="black" points="92.28,-30 92.28,-76 197.28,-76 197.28,-30 92.28,-30"/>
<text text-anchor="middle" x="105.78" y="-60.8" font-family="Times,serif" font-size="14.00">A</text>
<polyline fill="none" stroke="black" points="92.28,-53 119.28,-53 "/>
<text text-anchor="middle" x="105.78" y="-37.8" font-family="Times,serif" font-size="14.00">B</text>
<polyline fill="none" stroke="black" points="119.28,-30 119.28,-76 "/>
<text text-anchor="middle" x="145.28" y="-56.8" font-family="Times,serif" font-size="14.00">$4</text>
<text text-anchor="middle" x="145.28" y="-41.8" font-family="Times,serif" font-size="14.00">$and</text>
<polyline fill="none" stroke="black" points="171.28,-30 171.28,-76 "/>
<text text-anchor="middle" x="184.28" y="-49.3" font-family="Times,serif" font-size="14.00">Y</text>
</g>
<!-- n5&#45;&gt;c16 -->
<g id="edge8" class="edge">
<title>n5:e&#45;&gt;c16:w</title>
<path fill="none" stroke="#7570b3" d="M56.28,-97C73.51,-97 72.46,-76.28 82.55,-68.19"/>
<polygon fill="#7570b3" stroke="#7570b3" points="83.86,-71.44 92.28,-65 81.69,-64.78 83.86,-71.44"/>
</g>
<!-- n6 -->
<g id="node2" class="node">
<title>n6</title>
<polygon fill="none" stroke="black" points="874.3,-155.54 874.3,-170.46 858.48,-181 836.12,-181 820.3,-170.46 820.3,-155.54 836.12,-145 858.48,-145 874.3,-155.54"/>
<text text-anchor="middle" x="847.3" y="-159.3" font-family="Times,serif" font-size="14.00">Q</text>
</g>
<!-- n7 -->
<g id="node3" class="node">
<title>n7</title>
<polygon fill="none" stroke="black" points="565.54,-181 500.52,-163 565.54,-145 630.56,-163 565.54,-181"/>
<text text-anchor="middle" x="565.54" y="-159.3" font-family="Times,serif" font-size="14.00">Q_temp</text>
</g>
<!-- c20 -->
<g id="node13" class="node">
<title>c20</title>
<polygon fill="none" stroke="black" points="666.8,-41 666.8,-87 760.8,-87 760.8,-41 666.8,-41"/>
<text text-anchor="middle" x="680.3" y="-71.8" font-family="Times,serif" font-size="14.00">A</text>
<polyline fill="none" stroke="black" points="666.8,-64 693.8,-64 "/>
<text text-anchor="middle" x="680.3" y="-48.8" font-family="Times,serif" font-size="14.00">B</text>
<polyline fill="none" stroke="black" points="693.8,-41 693.8,-87 "/>
<text text-anchor="middle" x="714.3" y="-67.8" font-family="Times,serif" font-size="14.00">$5</text>
<text text-anchor="middle" x="714.3" y="-52.8" font-family="Times,serif" font-size="14.00">$or</text>
<polyline fill="none" stroke="black" points="734.8,-41 734.8,-87 "/>
<text text-anchor="middle" x="747.8" y="-60.3" font-family="Times,serif" font-size="14.00">Y</text>
</g>
<!-- n7&#45;&gt;c20 -->
<g id="edge11" class="edge">
<title>n7:e&#45;&gt;c20:w</title>
<path fill="none" stroke="#666666" d="M630.8,-163C668.56,-163 633.41,-92.16 656.94,-78.33"/>
<polygon fill="#666666" stroke="#666666" points="657.87,-81.7 666.8,-76 656.26,-74.89 657.87,-81.7"/>
</g>
<!-- x0 -->
<g id="node14" class="node">
<title>x0</title>
<path fill="none" stroke="black" d="M728.8,-181C728.8,-181 698.8,-181 698.8,-181 692.8,-181 686.8,-175 686.8,-169 686.8,-169 686.8,-157 686.8,-157 686.8,-151 692.8,-145 698.8,-145 698.8,-145 728.8,-145 728.8,-145 734.8,-145 740.8,-151 740.8,-157 740.8,-157 740.8,-169 740.8,-169 740.8,-175 734.8,-181 728.8,-181"/>
<text text-anchor="middle" x="713.8" y="-159.3" font-family="Times,serif" font-size="14.00">BUF</text>
</g>
<!-- n7&#45;&gt;x0 -->
<g id="edge12" class="edge">
<title>n7:e&#45;&gt;x0:w</title>
<path fill="none" stroke="#666666" d="M630.8,-163C651.42,-163 659,-163 675.54,-163"/>
<polygon fill="#666666" stroke="#666666" points="675.8,-166.5 685.8,-163 675.8,-159.5 675.8,-166.5"/>
</g>
<!-- n8 -->
<g id="node4" class="node">
<title>n8</title>
<polygon fill="none" stroke="black" points="1260.86,-82.54 1260.86,-97.46 1245.05,-108 1222.68,-108 1206.86,-97.46 1206.86,-82.54 1222.68,-72 1245.05,-72 1260.86,-82.54"/>
<text text-anchor="middle" x="1233.86" y="-86.3" font-family="Times,serif" font-size="14.00">Qo</text>
</g>
<!-- n9 -->
<g id="node5" class="node">
<title>n9</title>
<polygon fill="none" stroke="black" points="1007.33,-108 933.77,-90 1007.33,-72 1080.9,-90 1007.33,-108"/>
<text text-anchor="middle" x="1007.33" y="-86.3" font-family="Times,serif" font-size="14.00">Qo_temp</text>
</g>
<!-- c19 -->
<g id="node12" class="node">
<title>c19</title>
<polygon fill="none" stroke="black" points="233.28,-105 233.28,-151 327.28,-151 327.28,-105 233.28,-105"/>
<text text-anchor="middle" x="246.78" y="-135.8" font-family="Times,serif" font-size="14.00">A</text>
<polyline fill="none" stroke="black" points="233.28,-128 260.28,-128 "/>
<text text-anchor="middle" x="246.78" y="-112.8" font-family="Times,serif" font-size="14.00">B</text>
<polyline fill="none" stroke="black" points="260.28,-105 260.28,-151 "/>
<text text-anchor="middle" x="280.78" y="-131.8" font-family="Times,serif" font-size="14.00">$2</text>
<text text-anchor="middle" x="280.78" y="-116.8" font-family="Times,serif" font-size="14.00">$or</text>
<polyline fill="none" stroke="black" points="301.28,-105 301.28,-151 "/>
<text text-anchor="middle" x="314.28" y="-124.3" font-family="Times,serif" font-size="14.00">Y</text>
</g>
<!-- n9&#45;&gt;c19 -->
<g id="edge15" class="edge">
<title>n9:e&#45;&gt;c19:w</title>
<path fill="none" stroke="#e6ab02" d="M1082.33,-90C1090.34,-90 1087.09,-102.43 1081.33,-108 1022.76,-164.63 796.27,-116 714.8,-116 564.54,-116 564.54,-116 564.54,-116 458.97,-116 432.82,-107.06 327.28,-104.5 285.51,-103.49 264.07,-76.27 233.28,-104.5 232.81,-104.93 232.36,-105.44 231.94,-105.99"/>
<polygon fill="#e6ab02" stroke="#e6ab02" points="228.44,-106.12 232.28,-116 235.44,-105.89 228.44,-106.12"/>
</g>
<!-- x1 -->
<g id="node15" class="node">
<title>x1</title>
<path fill="none" stroke="black" d="M1158.86,-108C1158.86,-108 1128.86,-108 1128.86,-108 1122.86,-108 1116.86,-102 1116.86,-96 1116.86,-96 1116.86,-84 1116.86,-84 1116.86,-78 1122.86,-72 1128.86,-72 1128.86,-72 1158.86,-72 1158.86,-72 1164.86,-72 1170.86,-78 1170.86,-84 1170.86,-84 1170.86,-96 1170.86,-96 1170.86,-102 1164.86,-108 1158.86,-108"/>
<text text-anchor="middle" x="1143.86" y="-86.3" font-family="Times,serif" font-size="14.00">BUF</text>
</g>
<!-- n9&#45;&gt;x1 -->
<g id="edge16" class="edge">
<title>n9:e&#45;&gt;x1:w</title>
<path fill="none" stroke="#e6ab02" d="M1080.86,-90C1092.86,-90 1098.11,-90 1106.74,-90"/>
<polygon fill="#e6ab02" stroke="#e6ab02" points="1106.86,-93.5 1116.86,-90 1106.86,-86.5 1106.86,-93.5"/>
</g>
<!-- n10 -->
<g id="node6" class="node">
<title>n10</title>
<polygon fill="none" stroke="black" points="55.14,-33.54 55.14,-48.46 39.32,-59 16.96,-59 1.14,-48.46 1.14,-33.54 16.96,-23 39.32,-23 55.14,-33.54"/>
<text text-anchor="middle" x="28.14" y="-37.3" font-family="Times,serif" font-size="14.00">R</text>
</g>
<!-- n10&#45;&gt;c16 -->
<g id="edge2" class="edge">
<title>n10:e&#45;&gt;c16:w</title>
<path fill="none" stroke="#e7298a" d="M56.14,-41C68.19,-41 73.46,-41 82.12,-41"/>
<polygon fill="#e7298a" stroke="#e7298a" points="82.28,-44.5 92.28,-41 82.28,-37.5 82.28,-44.5"/>
</g>
<!-- n11 -->
<g id="node7" class="node">
<title>n11</title>
<polygon fill="none" stroke="black" points="55.14,-144.54 55.14,-159.46 39.32,-170 16.96,-170 1.14,-159.46 1.14,-144.54 16.96,-134 39.32,-134 55.14,-144.54"/>
<text text-anchor="middle" x="28.14" y="-148.3" font-family="Times,serif" font-size="14.00">S</text>
</g>
<!-- n11&#45;&gt;c15 -->
<g id="edge3" class="edge">
<title>n11:e&#45;&gt;c15:w</title>
<path fill="none" stroke="#e6ab02" d="M56.14,-152C68.19,-152 73.46,-152 82.12,-152"/>
<polygon fill="#e6ab02" stroke="#e6ab02" points="82.28,-155.5 92.28,-152 82.28,-148.5 82.28,-155.5"/>
</g>
<!-- c15&#45;&gt;c19 -->
<g id="edge1" class="edge">
<title>c15:e&#45;&gt;c19:w</title>
<path fill="none" stroke="#666666" d="M197.28,-140C209.28,-140 214.53,-140 223.15,-140"/>
<polygon fill="#666666" stroke="#666666" points="223.28,-143.5 233.28,-140 223.28,-136.5 223.28,-143.5"/>
</g>
<!-- c16&#45;&gt;c20 -->
<g id="edge4" class="edge">
<title>c16:e&#45;&gt;c20:w</title>
<path fill="none" stroke="#66a61e" d="M197.28,-53C402.49,-53 456.35,-52.03 656.53,-52"/>
<polygon fill="#66a61e" stroke="#66a61e" points="656.8,-55.5 666.8,-52 656.8,-48.5 656.8,-55.5"/>
</g>
<!-- c17 -->
<g id="node10" class="node">
<title>c17</title>
<polygon fill="none" stroke="black" points="363.28,-145 363.28,-183 464.28,-183 464.28,-145 363.28,-145"/>
<text text-anchor="middle" x="376.28" y="-160.3" font-family="Times,serif" font-size="14.00">A</text>
<polyline fill="none" stroke="black" points="389.28,-145 389.28,-183 "/>
<text text-anchor="middle" x="413.78" y="-167.8" font-family="Times,serif" font-size="14.00">$3</text>
<text text-anchor="middle" x="413.78" y="-152.8" font-family="Times,serif" font-size="14.00">$not</text>
<polyline fill="none" stroke="black" points="438.28,-145 438.28,-183 "/>
<text text-anchor="middle" x="451.28" y="-160.3" font-family="Times,serif" font-size="14.00">Y</text>
</g>
<!-- c17&#45;&gt;n7 -->
<g id="edge10" class="edge">
<title>c17:e&#45;&gt;n7:w</title>
<path fill="none" stroke="#666666" d="M464.28,-164C476.28,-164 481.53,-163.44 490.15,-163.16"/>
<polygon fill="#666666" stroke="#666666" points="490.33,-166.65 500.28,-163 490.23,-159.65 490.33,-166.65"/>
</g>
<!-- c18 -->
<g id="node11" class="node">
<title>c18</title>
<polygon fill="none" stroke="black" points="796.8,-47 796.8,-85 897.8,-85 897.8,-47 796.8,-47"/>
<text text-anchor="middle" x="809.8" y="-62.3" font-family="Times,serif" font-size="14.00">A</text>
<polyline fill="none" stroke="black" points="822.8,-47 822.8,-85 "/>
<text text-anchor="middle" x="847.3" y="-69.8" font-family="Times,serif" font-size="14.00">$6</text>
<text text-anchor="middle" x="847.3" y="-54.8" font-family="Times,serif" font-size="14.00">$not</text>
<polyline fill="none" stroke="black" points="871.8,-47 871.8,-85 "/>
<text text-anchor="middle" x="884.8" y="-62.3" font-family="Times,serif" font-size="14.00">Y</text>
</g>
<!-- c18&#45;&gt;n9 -->
<g id="edge14" class="edge">
<title>c18:e&#45;&gt;n9:w</title>
<path fill="none" stroke="#e6ab02" d="M897.8,-66C912.97,-66 914.64,-80.94 924.12,-87.25"/>
<polygon fill="#e6ab02" stroke="#e6ab02" points="923.22,-90.63 933.8,-90 925.14,-83.9 923.22,-90.63"/>
</g>
<!-- c19&#45;&gt;c17 -->
<g id="edge5" class="edge">
<title>c19:e&#45;&gt;c17:w</title>
<path fill="none" stroke="#d95f02" d="M327.28,-128C345.66,-128 343,-151.77 353.49,-160.68"/>
<polygon fill="#d95f02" stroke="#d95f02" points="352.69,-164.1 363.28,-164 354.94,-157.47 352.69,-164.1"/>
</g>
<!-- c20&#45;&gt;c18 -->
<g id="edge6" class="edge">
<title>c20:e&#45;&gt;c18:w</title>
<path fill="none" stroke="#666666" d="M760.8,-64C772.82,-64 778.05,-65.12 786.67,-65.69"/>
<polygon fill="#666666" stroke="#666666" points="786.7,-69.19 796.8,-66 786.91,-62.19 786.7,-69.19"/>
</g>
<!-- x0&#45;&gt;n6 -->
<g id="edge9" class="edge">
<title>x0:e&#45;&gt;n6:w</title>
<path fill="none" stroke="#1b9e77" d="M741.8,-163C772.61,-163 782.75,-163 809.2,-163"/>
<polygon fill="#1b9e77" stroke="#1b9e77" points="809.3,-166.5 819.3,-163 809.3,-159.5 809.3,-166.5"/>
</g>
<!-- x1&#45;&gt;n8 -->
<g id="edge13" class="edge">
<title>x1:e&#45;&gt;n8:w</title>
<path fill="none" stroke="#d95f02" d="M1170.86,-90C1182.86,-90 1188.11,-90 1196.74,-90"/>
<polygon fill="#d95f02" stroke="#d95f02" points="1196.86,-93.5 1206.86,-90 1196.86,-86.5 1196.86,-93.5"/>
</g>
</g>
</svg>
