<?xml version="1.0" encoding="UTF-8" standalone="no"?>
<!DOCTYPE svg PUBLIC "-//W3C//DTD SVG 1.1//EN"
 "http://www.w3.org/Graphics/SVG/1.1/DTD/svg11.dtd">
<!-- Generated by graphviz version 2.43.0 (0)
 -->
<!-- Title: full_adder Pages: 1 -->
<svg width="661pt" height="178pt"
 viewBox="0.00 0.00 660.66 178.00" xmlns="http://www.w3.org/2000/svg" xmlns:xlink="http://www.w3.org/1999/xlink">
<g id="graph0" class="graph" transform="scale(1 1) rotate(0) translate(4 174)">
<title>full_adder</title>
<polygon fill="white" stroke="transparent" points="-4,4 -4,-174 656.66,-174 656.66,4 -4,4"/>
<text text-anchor="middle" x="326.33" y="-7.8" font-family="Times,serif" font-size="14.00">full_adder</text>
<!-- n3 -->
<g id="node1" class="node">
<title>n3</title>
<polygon fill="none" stroke="black" points="54,-107.04 54,-121.96 38.18,-132.5 15.82,-132.5 0,-121.96 0,-107.04 15.82,-96.5 38.18,-96.5 54,-107.04"/>
<text text-anchor="middle" x="27" y="-110.8" font-family="Times,serif" font-size="14.00">A</text>
</g>
<!-- c11 -->
<g id="node8" class="node">
<title>c11</title>
<polygon fill="none" stroke="black" points="90,-23.5 90,-69.5 195,-69.5 195,-23.5 90,-23.5"/>
<text text-anchor="middle" x="103.5" y="-54.3" font-family="Times,serif" font-size="14.00">A</text>
<polyline fill="none" stroke="black" points="90,-46.5 117,-46.5 "/>
<text text-anchor="middle" x="103.5" y="-31.3" font-family="Times,serif" font-size="14.00">B</text>
<polyline fill="none" stroke="black" points="117,-23.5 117,-69.5 "/>
<text text-anchor="middle" x="143" y="-50.3" font-family="Times,serif" font-size="14.00">$4</text>
<text text-anchor="middle" x="143" y="-35.3" font-family="Times,serif" font-size="14.00">$and</text>
<polyline fill="none" stroke="black" points="169,-23.5 169,-69.5 "/>
<text text-anchor="middle" x="182" y="-42.8" font-family="Times,serif" font-size="14.00">Y</text>
</g>
<!-- n3&#45;&gt;c11 -->
<g id="edge3" class="edge">
<title>n3:e&#45;&gt;c11:w</title>
<path fill="none" stroke="#e6ab02" d="M54,-114.5C79.43,-114.5 65.89,-73.14 80.35,-61.51"/>
<polygon fill="#e6ab02" stroke="#e6ab02" points="81.5,-64.82 90,-58.5 79.41,-58.14 81.5,-64.82"/>
</g>
<!-- c13 -->
<g id="node10" class="node">
<title>c13</title>
<polygon fill="none" stroke="black" points="91.5,-88.5 91.5,-134.5 193.5,-134.5 193.5,-88.5 91.5,-88.5"/>
<text text-anchor="middle" x="105" y="-119.3" font-family="Times,serif" font-size="14.00">A</text>
<polyline fill="none" stroke="black" points="91.5,-111.5 118.5,-111.5 "/>
<text text-anchor="middle" x="105" y="-96.3" font-family="Times,serif" font-size="14.00">B</text>
<polyline fill="none" stroke="black" points="118.5,-88.5 118.5,-134.5 "/>
<text text-anchor="middle" x="143" y="-115.3" font-family="Times,serif" font-size="14.00">$1</text>
<text text-anchor="middle" x="143" y="-100.3" font-family="Times,serif" font-size="14.00">$xor</text>
<polyline fill="none" stroke="black" points="167.5,-88.5 167.5,-134.5 "/>
<text text-anchor="middle" x="180.5" y="-107.8" font-family="Times,serif" font-size="14.00">Y</text>
</g>
<!-- n3&#45;&gt;c13 -->
<g id="edge4" class="edge">
<title>n3:e&#45;&gt;c13:w</title>
<path fill="none" stroke="#e6ab02" d="M54,-114.5C66.66,-114.5 71.5,-119.67 80.37,-122.17"/>
<polygon fill="#e6ab02" stroke="#e6ab02" points="80.13,-125.67 90.5,-123.5 81.04,-118.73 80.13,-125.67"/>
</g>
<!-- n4 -->
<g id="node2" class="node">
<title>n4</title>
<polygon fill="none" stroke="black" points="54,-44.04 54,-58.96 38.18,-69.5 15.82,-69.5 0,-58.96 0,-44.04 15.82,-33.5 38.18,-33.5 54,-44.04"/>
<text text-anchor="middle" x="27" y="-47.8" font-family="Times,serif" font-size="14.00">B</text>
</g>
<!-- n4&#45;&gt;c11 -->
<g id="edge5" class="edge">
<title>n4:e&#45;&gt;c11:w</title>
<path fill="none" stroke="#66a61e" d="M54,-51.5C67.69,-51.5 71.15,-41.33 80.21,-36.72"/>
<polygon fill="#66a61e" stroke="#66a61e" points="81.02,-40.13 90,-34.5 79.47,-33.3 81.02,-40.13"/>
</g>
<!-- n4&#45;&gt;c13 -->
<g id="edge6" class="edge">
<title>n4:e&#45;&gt;c13:w</title>
<path fill="none" stroke="#66a61e" d="M54,-51.5C76.61,-51.5 67.97,-85.67 80.82,-96.35"/>
<polygon fill="#66a61e" stroke="#66a61e" points="79.91,-99.74 90.5,-99.5 82.07,-93.08 79.91,-99.74"/>
</g>
<!-- n5 -->
<g id="node3" class="node">
<title>n5</title>
<polygon fill="none" stroke="black" points="288.33,-68.04 288.33,-82.96 272.52,-93.5 250.15,-93.5 234.33,-82.96 234.33,-68.04 250.15,-57.5 272.52,-57.5 288.33,-68.04"/>
<text text-anchor="middle" x="261.33" y="-71.8" font-family="Times,serif" font-size="14.00">Ci</text>
</g>
<!-- c10 -->
<g id="node7" class="node">
<title>c10</title>
<polygon fill="none" stroke="black" points="327.66,-58.5 327.66,-104.5 432.66,-104.5 432.66,-58.5 327.66,-58.5"/>
<text text-anchor="middle" x="341.16" y="-89.3" font-family="Times,serif" font-size="14.00">A</text>
<polyline fill="none" stroke="black" points="327.66,-81.5 354.66,-81.5 "/>
<text text-anchor="middle" x="341.16" y="-66.3" font-family="Times,serif" font-size="14.00">B</text>
<polyline fill="none" stroke="black" points="354.66,-58.5 354.66,-104.5 "/>
<text text-anchor="middle" x="380.66" y="-85.3" font-family="Times,serif" font-size="14.00">$3</text>
<text text-anchor="middle" x="380.66" y="-70.3" font-family="Times,serif" font-size="14.00">$and</text>
<polyline fill="none" stroke="black" points="406.66,-58.5 406.66,-104.5 "/>
<text text-anchor="middle" x="419.66" y="-77.8" font-family="Times,serif" font-size="14.00">Y</text>
</g>
<!-- n5&#45;&gt;c10 -->
<g id="edge7" class="edge">
<title>n5:e&#45;&gt;c10:w</title>
<path fill="none" stroke="#d95f02" d="M289.33,-75.5C302.53,-75.5 307.88,-71.98 317.4,-70.33"/>
<polygon fill="#d95f02" stroke="#d95f02" points="317.98,-73.8 327.66,-69.5 317.41,-66.82 317.98,-73.8"/>
</g>
<!-- c14 -->
<g id="node11" class="node">
<title>c14</title>
<polygon fill="none" stroke="black" points="329.16,-123.5 329.16,-169.5 431.16,-169.5 431.16,-123.5 329.16,-123.5"/>
<text text-anchor="middle" x="342.66" y="-154.3" font-family="Times,serif" font-size="14.00">A</text>
<polyline fill="none" stroke="black" points="329.16,-146.5 356.16,-146.5 "/>
<text text-anchor="middle" x="342.66" y="-131.3" font-family="Times,serif" font-size="14.00">B</text>
<polyline fill="none" stroke="black" points="356.16,-123.5 356.16,-169.5 "/>
<text text-anchor="middle" x="380.66" y="-150.3" font-family="Times,serif" font-size="14.00">$2</text>
<text text-anchor="middle" x="380.66" y="-135.3" font-family="Times,serif" font-size="14.00">$xor</text>
<polyline fill="none" stroke="black" points="405.16,-123.5 405.16,-169.5 "/>
<text text-anchor="middle" x="418.16" y="-142.8" font-family="Times,serif" font-size="14.00">Y</text>
</g>
<!-- n5&#45;&gt;c14 -->
<g id="edge8" class="edge">
<title>n5:e&#45;&gt;c14:w</title>
<path fill="none" stroke="#d95f02" d="M289.33,-75.5C316.56,-75.5 302.16,-119.87 318.33,-131.65"/>
<polygon fill="#d95f02" stroke="#d95f02" points="317.59,-135.08 328.16,-134.5 319.53,-128.36 317.59,-135.08"/>
</g>
<!-- n6 -->
<g id="node4" class="node">
<title>n6</title>
<polygon fill="none" stroke="black" points="652.66,-48.04 652.66,-62.96 636.85,-73.5 614.48,-73.5 598.66,-62.96 598.66,-48.04 614.48,-37.5 636.85,-37.5 652.66,-48.04"/>
<text text-anchor="middle" x="625.66" y="-51.8" font-family="Times,serif" font-size="14.00">Co</text>
</g>
<!-- n7 -->
<g id="node5" class="node">
<title>n7</title>
<polygon fill="none" stroke="black" points="542.66,-139.04 542.66,-153.96 526.85,-164.5 504.48,-164.5 488.66,-153.96 488.66,-139.04 504.48,-128.5 526.85,-128.5 542.66,-139.04"/>
<text text-anchor="middle" x="515.66" y="-142.8" font-family="Times,serif" font-size="14.00">S</text>
</g>
<!-- n8 -->
<g id="node6" class="node">
<title>n8</title>
<polygon fill="none" stroke="black" points="261.33,-147.5 231.17,-129.5 261.33,-111.5 291.5,-129.5 261.33,-147.5"/>
<text text-anchor="middle" x="261.33" y="-125.8" font-family="Times,serif" font-size="14.00">s0</text>
</g>
<!-- n8&#45;&gt;c10 -->
<g id="edge12" class="edge">
<title>n8:e&#45;&gt;c10:w</title>
<path fill="none" stroke="#1b9e77" d="M291.66,-129.5C310.05,-129.5 307.39,-105.73 317.88,-96.82"/>
<polygon fill="#1b9e77" stroke="#1b9e77" points="319.32,-100.03 327.66,-93.5 317.07,-93.4 319.32,-100.03"/>
</g>
<!-- n8&#45;&gt;c14 -->
<g id="edge13" class="edge">
<title>n8:e&#45;&gt;c14:w</title>
<path fill="none" stroke="#1b9e77" d="M291.66,-129.5C308.34,-129.5 308.4,-148.28 318.58,-155.61"/>
<polygon fill="#1b9e77" stroke="#1b9e77" points="317.58,-158.97 328.16,-158.5 319.6,-152.27 317.58,-158.97"/>
</g>
<!-- c12 -->
<g id="node9" class="node">
<title>c12</title>
<polygon fill="none" stroke="black" points="468.66,-32.5 468.66,-78.5 562.66,-78.5 562.66,-32.5 468.66,-32.5"/>
<text text-anchor="middle" x="482.16" y="-63.3" font-family="Times,serif" font-size="14.00">A</text>
<polyline fill="none" stroke="black" points="468.66,-55.5 495.66,-55.5 "/>
<text text-anchor="middle" x="482.16" y="-40.3" font-family="Times,serif" font-size="14.00">B</text>
<polyline fill="none" stroke="black" points="495.66,-32.5 495.66,-78.5 "/>
<text text-anchor="middle" x="516.16" y="-59.3" font-family="Times,serif" font-size="14.00">$5</text>
<text text-anchor="middle" x="516.16" y="-44.3" font-family="Times,serif" font-size="14.00">$or</text>
<polyline fill="none" stroke="black" points="536.66,-32.5 536.66,-78.5 "/>
<text text-anchor="middle" x="549.66" y="-51.8" font-family="Times,serif" font-size="14.00">Y</text>
</g>
<!-- c10&#45;&gt;c12 -->
<g id="edge1" class="edge">
<title>c10:e&#45;&gt;c12:w</title>
<path fill="none" stroke="#666666" d="M432.66,-81.5C445.81,-81.5 449.86,-73.29 458.75,-69.45"/>
<polygon fill="#666666" stroke="#666666" points="459.53,-72.86 468.66,-67.5 458.18,-65.99 459.53,-72.86"/>
</g>
<!-- c11&#45;&gt;c12 -->
<g id="edge2" class="edge">
<title>c11:e&#45;&gt;c12:w</title>
<path fill="none" stroke="#e7298a" d="M195,-46.5C313.19,-46.5 345.23,-43.67 458.55,-43.51"/>
<polygon fill="#e7298a" stroke="#e7298a" points="458.67,-47.01 468.66,-43.5 458.66,-40.01 458.67,-47.01"/>
</g>
<!-- c12&#45;&gt;n6 -->
<g id="edge9" class="edge">
<title>c12:e&#45;&gt;n6:w</title>
<path fill="none" stroke="#666666" d="M562.66,-55.5C574.66,-55.5 579.91,-55.5 588.54,-55.5"/>
<polygon fill="#666666" stroke="#666666" points="588.66,-59 598.66,-55.5 588.66,-52 588.66,-59"/>
</g>
<!-- c13&#45;&gt;n8 -->
<g id="edge11" class="edge">
<title>c13:e&#45;&gt;n8:w</title>
<path fill="none" stroke="#1b9e77" d="M194.5,-111.5C208.49,-111.5 211.85,-122.27 221.03,-127.15"/>
<polygon fill="#1b9e77" stroke="#1b9e77" points="220.46,-130.61 231,-129.5 222.07,-123.8 220.46,-130.61"/>
</g>
<!-- c14&#45;&gt;n7 -->
<g id="edge10" class="edge">
<title>c14:e&#45;&gt;n7:w</title>
<path fill="none" stroke="#7570b3" d="M432.16,-146.5C452.98,-146.5 460.62,-146.5 477.32,-146.5"/>
<polygon fill="#7570b3" stroke="#7570b3" points="477.66,-150 487.66,-146.5 477.66,-143 477.66,-150"/>
</g>
</g>
</svg>
