<?xml version="1.0" encoding="UTF-8" standalone="no"?>
<!DOCTYPE svg PUBLIC "-//W3C//DTD SVG 1.1//EN"
 "http://www.w3.org/Graphics/SVG/1.1/DTD/svg11.dtd">
<!-- Generated by graphviz version 2.43.0 (0)
 -->
<!-- Title: mux2x1 Pages: 1 -->
<svg width="453pt" height="246pt"
 viewBox="0.00 0.00 452.72 246.00" xmlns="http://www.w3.org/2000/svg" xmlns:xlink="http://www.w3.org/1999/xlink">
<g id="graph0" class="graph" transform="scale(1 1) rotate(0) translate(4 242)">
<title>mux2x1</title>
<polygon fill="white" stroke="transparent" points="-4,4 -4,-242 448.72,-242 448.72,4 -4,4"/>
<text text-anchor="middle" x="222.36" y="-7.8" font-family="Times,serif" font-size="14.00">mux2x1</text>
<!-- n2 -->
<g id="node1" class="node">
<title>n2</title>
<polygon fill="none" stroke="black" points="59.36,-212.54 59.36,-227.46 43.54,-238 21.18,-238 5.36,-227.46 5.36,-212.54 21.18,-202 43.54,-202 59.36,-212.54"/>
<text text-anchor="middle" x="32.36" y="-216.3" font-family="Times,serif" font-size="14.00">A</text>
</g>
<!-- c9 -->
<g id="node8" class="node">
<title>c9</title>
<polygon fill="none" stroke="black" points="100.72,-131.5 100.72,-200.5 209.72,-200.5 209.72,-131.5 100.72,-131.5"/>
<text text-anchor="middle" x="114.22" y="-185.3" font-family="Times,serif" font-size="14.00">A</text>
<polyline fill="none" stroke="black" points="100.72,-177.5 127.72,-177.5 "/>
<text text-anchor="middle" x="114.22" y="-162.3" font-family="Times,serif" font-size="14.00">B</text>
<polyline fill="none" stroke="black" points="100.72,-154.5 127.72,-154.5 "/>
<text text-anchor="middle" x="114.22" y="-139.3" font-family="Times,serif" font-size="14.00">S</text>
<polyline fill="none" stroke="black" points="127.72,-131.5 127.72,-200.5 "/>
<text text-anchor="middle" x="155.72" y="-169.8" font-family="Times,serif" font-size="14.00">$4</text>
<text text-anchor="middle" x="155.72" y="-154.8" font-family="Times,serif" font-size="14.00">$mux</text>
<polyline fill="none" stroke="black" points="183.72,-131.5 183.72,-200.5 "/>
<text text-anchor="middle" x="196.72" y="-162.3" font-family="Times,serif" font-size="14.00">Y</text>
</g>
<!-- n2&#45;&gt;c9 -->
<g id="edge2" class="edge">
<title>n2:e&#45;&gt;c9:w</title>
<path fill="none" stroke="#e7298a" d="M60.36,-220C78.91,-220 78.97,-199.14 90.87,-191.64"/>
<polygon fill="#e7298a" stroke="#e7298a" points="91.97,-194.97 100.72,-189 90.16,-188.21 91.97,-194.97"/>
</g>
<!-- n3 -->
<g id="node2" class="node">
<title>n3</title>
<polygon fill="none" stroke="black" points="59.36,-158.54 59.36,-173.46 43.54,-184 21.18,-184 5.36,-173.46 5.36,-158.54 21.18,-148 43.54,-148 59.36,-158.54"/>
<text text-anchor="middle" x="32.36" y="-162.3" font-family="Times,serif" font-size="14.00">B</text>
</g>
<!-- n3&#45;&gt;c9 -->
<g id="edge3" class="edge">
<title>n3:e&#45;&gt;c9:w</title>
<path fill="none" stroke="#e6ab02" d="M60.36,-166C74.37,-166 80.18,-166 90.6,-166"/>
<polygon fill="#e6ab02" stroke="#e6ab02" points="90.72,-169.5 100.72,-166 90.72,-162.5 90.72,-169.5"/>
</g>
<!-- n4 -->
<g id="node3" class="node">
<title>n4</title>
<polygon fill="none" stroke="black" points="191.88,-33.54 191.88,-48.46 170.41,-59 140.03,-59 118.56,-48.46 118.56,-33.54 140.03,-23 170.41,-23 191.88,-33.54"/>
<text text-anchor="middle" x="155.22" y="-37.3" font-family="Times,serif" font-size="14.00">Gbar</text>
</g>
<!-- c8 -->
<g id="node7" class="node">
<title>c8</title>
<polygon fill="none" stroke="black" points="245.72,-60.5 245.72,-129.5 354.72,-129.5 354.72,-60.5 245.72,-60.5"/>
<text text-anchor="middle" x="259.22" y="-114.3" font-family="Times,serif" font-size="14.00">A</text>
<polyline fill="none" stroke="black" points="245.72,-106.5 272.72,-106.5 "/>
<text text-anchor="middle" x="259.22" y="-91.3" font-family="Times,serif" font-size="14.00">B</text>
<polyline fill="none" stroke="black" points="245.72,-83.5 272.72,-83.5 "/>
<text text-anchor="middle" x="259.22" y="-68.3" font-family="Times,serif" font-size="14.00">S</text>
<polyline fill="none" stroke="black" points="272.72,-60.5 272.72,-129.5 "/>
<text text-anchor="middle" x="300.72" y="-98.8" font-family="Times,serif" font-size="14.00">$10</text>
<text text-anchor="middle" x="300.72" y="-83.8" font-family="Times,serif" font-size="14.00">$mux</text>
<polyline fill="none" stroke="black" points="328.72,-60.5 328.72,-129.5 "/>
<text text-anchor="middle" x="341.72" y="-91.3" font-family="Times,serif" font-size="14.00">Y</text>
</g>
<!-- n4&#45;&gt;c8 -->
<g id="edge4" class="edge">
<title>n4:e&#45;&gt;c8:w</title>
<path fill="none" stroke="#66a61e" d="M193.22,-41C216.51,-41 218.53,-63.89 235.84,-70.33"/>
<polygon fill="#66a61e" stroke="#66a61e" points="235.28,-73.79 245.72,-72 236.44,-66.89 235.28,-73.79"/>
</g>
<!-- n5 -->
<g id="node4" class="node">
<title>n5</title>
<polygon fill="none" stroke="black" points="64.58,-104.54 64.58,-119.46 45.71,-130 19.01,-130 0.14,-119.46 0.14,-104.54 19.01,-94 45.71,-94 64.58,-104.54"/>
<text text-anchor="middle" x="32.36" y="-108.3" font-family="Times,serif" font-size="14.00">SEL</text>
</g>
<!-- n5&#45;&gt;c9 -->
<g id="edge5" class="edge">
<title>n5:e&#45;&gt;c9:w</title>
<path fill="none" stroke="#d95f02" d="M64.72,-112C81.71,-112 81,-132.07 91.07,-139.91"/>
<polygon fill="#d95f02" stroke="#d95f02" points="90.13,-143.29 100.72,-143 92.26,-136.62 90.13,-143.29"/>
</g>
<!-- n6 -->
<g id="node5" class="node">
<title>n6</title>
<polygon fill="none" stroke="black" points="444.72,-87.54 444.72,-102.46 428.91,-113 406.54,-113 390.72,-102.46 390.72,-87.54 406.54,-77 428.91,-77 444.72,-87.54"/>
<text text-anchor="middle" x="417.72" y="-91.3" font-family="Times,serif" font-size="14.00">Y</text>
</g>
<!-- v0 -->
<g id="node6" class="node">
<title>v0</title>
<ellipse fill="none" stroke="black" cx="155.22" cy="-95" rx="27" ry="18"/>
<text text-anchor="middle" x="155.22" y="-91.3" font-family="Times,serif" font-size="14.00">1&#39;z</text>
</g>
<!-- v0&#45;&gt;c8 -->
<g id="edge7" class="edge">
<title>v0:e&#45;&gt;c8:w</title>
<path fill="none" stroke="#7570b3" d="M183.22,-95C207.31,-95 215.73,-95 235.66,-95"/>
<polygon fill="#7570b3" stroke="#7570b3" points="235.72,-98.5 245.72,-95 235.72,-91.5 235.72,-98.5"/>
</g>
<!-- c8&#45;&gt;n6 -->
<g id="edge6" class="edge">
<title>c8:e&#45;&gt;n6:w</title>
<path fill="none" stroke="#666666" d="M354.72,-95C366.72,-95 371.97,-95 380.6,-95"/>
<polygon fill="#666666" stroke="#666666" points="380.72,-98.5 390.72,-95 380.72,-91.5 380.72,-98.5"/>
</g>
<!-- c9&#45;&gt;c8 -->
<g id="edge1" class="edge">
<title>c9:e&#45;&gt;c8:w</title>
<path fill="none" stroke="#666666" d="M209.72,-166C232.22,-166 223.4,-131.83 236.11,-121.15"/>
<polygon fill="#666666" stroke="#666666" points="237.31,-124.44 245.72,-118 235.13,-117.79 237.31,-124.44"/>
</g>
</g>
</svg>
